#!OML:ASF F:\VICON\USERDATA\INSTALL\SteveWalk\SteveWalk.ASF
:FULLY-SPECIFIED
:DEGREES
16
root -0.828912 16.4318 -43.4412 16.5832 -0.306743 0.232202
lowerback -15.9329 0.255814 0.182347
upperback -3.73047 0.189065 2.03196
thorax 4.95168 0.0892592 2.0813
lowerneck -5.33872 -0.863527 1.13039
upperneck 8.90037 -0.850974 -4.37387
head 3.83546 -0.576022 -1.70067
rclavicle 5.8393e-015 3.97569e-015
rhumerus -23.9266 -9.71978 -83.4457
rradius 27.2823
rwrist -1.14233
rhand -15.9472 -36.7896
rfingers 7.12502
rthumb 10.2511 -66.5198
lclavicle 5.8393e-015 3.97569e-015
lhumerus -39.6923 13.1402 80.6622
lradius 18.3023
lwrist -12.9593
lhand -15.0204 -17.1317
lfingers 7.12502
lthumb 11.1451 12.5523
rfemur -27.4526 -1.64873 23.4526
rtibia 36.1305
rfoot -25.6892 4.49542
rtoes -6.93626
lfemur -47.8781 3.9014 -22.476
ltibia 63.2708
lfoot -9.08655 1.58901
ltoes -7.45693
17
root -0.826492 16.4193 -43.2398 16.5594 -0.669796 0.321884
lowerback -15.3071 0.299136 0.0377144
upperback -4.33439 0.286781 2.05358
thorax 3.97134 0.144576 2.19119
lowerneck -4.11218 -0.808293 0.698282
upperneck 8.93028 -0.753194 -4.26327
head 3.60807 -0.525613 -1.56501
rclavicle 4.95719e-015 -2.54444e-014
rhumerus -24.0643 -7.03049 -84.0261
rradius 28.9756
rwrist -3.16001
rhand -15.675 -36.585
rfingers 7.12502
rthumb 10.5136 -66.3021
lclavicle 4.95719e-015 -2.54444e-014
lhumerus -41.933 14.2115 79.5326
lradius 17.6197
lwrist -15.2087
lhand -14.8754 -16.2961
lfingers 7.12502
lthumb 11.2849 13.3804
rfemur -26.3935 -1.99724 23.2893
rtibia 35.7492
rfoot -26.3454 5.1228
rtoes -6.6267
lfemur -48.2765 4.03122 -22.6274
ltibia 60.7825
lfoot -9.89616 2.53761
ltoes -10.6093
18
root -0.82109 16.4137 -43.0329 16.5383 -0.425332 0.416821
lowerback -14.3789 0.26613 -0.000679105
upperback -5.09973 0.277175 1.98212
thorax 2.66813 0.151018 2.11878
lowerneck -3.15037 -0.831167 0.664094
upperneck 9.18618 -0.776612 -4.27888
head 3.5101 -0.531902 -1.55688
rclavicle 3.86388e-015 7.95139e-016
rhumerus -24.508 -4.80989 -84.6001
rradius 30.7599
rwrist -5.5163
rhand -15.8061 -36.3177
rfingers 7.12502
rthumb 10.3872 -66.0411
lclavicle 3.86388e-015 7.95139e-016
lhumerus -44.3096 14.5958 78.4163
lradius 17.1501
lwrist -16.918
lhand -14.5806 -15.8104
lfingers 7.12502
lthumb 11.5692 13.8503
rfemur -25.1716 -2.70919 23.2481
rtibia 35.2476
rfoot -27.0113 5.44501
rtoes -6.6085
lfemur -48.6395 3.59777 -22.5614
ltibia 58.051
lfoot -9.67922 3.05304
ltoes -5.18138
19
root -0.823589 16.4264 -42.8267 16.6404 -0.774637 0.251231
lowerback -15.6157 0.539553 0.030376
upperback -3.98033 0.608663 1.81114
thorax 4.50204 0.298821 2.00824
lowerneck -4.86622 -0.885104 1.2124
upperneck 8.79485 -0.886473 -4.41596
head 3.70417 -0.586745 -1.72246
rclavicle -1.30452e-014 -4.77083e-015
rhumerus -21.67 -3.56403 -85.3404
rradius 32.3935
rwrist -7.46142
rhand -15.3459 -36.3155
rfingers 7.12502
rthumb 10.8311 -66.0162
lclavicle -1.30452e-014 -4.77083e-015
lhumerus -43.3139 15.6475 77.6857
lradius 16.258
lwrist -19.0724
lhand -14.3527 -15.9418
lfingers 7.12502
lthumb 11.789 13.7064
rfemur -24.1095 -2.87554 23.3613
rtibia 34.6124
rfoot -27.4906 5.89206
rtoes -6.63616
lfemur -49.0834 3.69827 -22.251
ltibia 55.2141
lfoot -9.20509 3.49532
ltoes 2.35964
20
root -0.823069 16.4273 -42.6182 16.6763 -1.08293 0.144452
lowerback -16.3114 0.605466 0.0698089
upperback -3.64878 0.673666 1.83876
thorax 5.2266 0.32472 2.04475
lowerneck -4.54799 -0.772601 1.05865
upperneck 8.30461 -0.739262 -4.41259
head 3.47557 -0.510899 -1.6741
rclavicle 1.2424e-015 -1.27222e-014
rhumerus -20.7648 -1.63103 -85.6393
rradius 33.5531
rwrist -7.78312
rhand -15.4457 -30.4766
rfingers 7.12502
rthumb 10.7348 -60.1824
lclavicle 1.2424e-015 -1.27222e-014
lhumerus -44.2006 17.0355 76.5436
lradius 15.6146
lwrist -21.1467
lhand -14.3636 -15.8498
lfingers 7.12502
lthumb 11.7785 13.799
rfemur -22.9526 -3.28263 23.4136
rtibia 33.8219
rfoot -27.9272 6.48892
rtoes -6.65127
lfemur -49.3254 3.74607 -22.0419
ltibia 52.2304
lfoot -9.43377 4.60775
ltoes 0.955039
21
root -0.820032 16.4192 -42.4104 16.6821 -1.3665 0.0704777
lowerback -15.0163 0.712239 0.174445
upperback -4.62841 0.833315 1.76756
thorax 3.49093 0.41863 1.90301
lowerneck -3.5932 -0.709533 0.932225
upperneck 8.82288 -0.633954 -4.3603
head 3.47397 -0.455918 -1.62594
rclavicle 1.22625e-014 1.11319e-014
rhumerus -21.7508 0.608027 -86.1541
rradius 35.8987
rwrist -9.16301
rhand -15.5744 -33.6005
rfingers 7.12502
rthumb 10.6107 -63.3126
lclavicle 1.22625e-014 1.11319e-014
lhumerus -47.0251 17.4253 74.9449
lradius 15.2695
lwrist -22.4842
lhand -14.3128 -15.8222
lfingers 7.12502
lthumb 11.8274 13.8238
rfemur -21.7397 -4.09533 23.4437
rtibia 32.8816
rfoot -28.3348 7.44875
rtoes -6.50672
lfemur -49.4499 3.69031 -21.8613
ltibia 49.1421
lfoot -9.47401 5.72968
ltoes -3.74722
